<?xml version="1.0" standalone="yes"?>
<svg xmlns="http://www.w3.org/2000/svg" width="192" height="192">
<path style="fill:#030179; stroke:none;" d="M0 0L0 192L192 192L192 0L0 0z"/>
<path style="fill:#15cf4c; stroke:none;" d="M12 46L12 144L13 144L13 76L12 46z"/>
<path style="fill:#1bf325; stroke:none;" d="M13 46L13 144L37 144L37 102L77 102L77 83L37 83L37 65L80 65L80 46L13 46z"/>
<path style="fill:#10a960; stroke:none;" d="M80 46L80 65L81 65L80 46z"/>
<path style="fill:#15cf4c; stroke:none;" d="M104 46L104 144L105 144L105 76L104 46z"/>
<path style="fill:#1bf325; stroke:none;" d="M105 46L105 144L129 144L129 110C142.749 110 158.72 111.474 170.999 104.07C187.315 94.2331 189.339 65.7191 173.96 53.9275C156.488 40.5311 125.65 46 105 46z"/>
<path style="fill:#15cf4c; stroke:none;" d="M151 46L151 47L154 47L151 46z"/>
<path style="fill:#10a960; stroke:none;" d="M154.667 46.3333L155.333 46.6667L154.667 46.3333z"/>
<path style="fill:#076172; stroke:none;" d="M156.667 46.3333L157.333 46.6667L156.667 46.3333z"/>
<path style="fill:#15cf4c; stroke:none;" d="M159 47L160 48L159 47z"/>
<path style="fill:#10a960; stroke:none;" d="M160 47L161 48L160 47z"/>
<path style="fill:#076172; stroke:none;" d="M161 47L162 48L161 47z"/>
<path style="fill:#15cf4c; stroke:none;" d="M163 48L164 49L163 48z"/>
<path style="fill:#10a960; stroke:none;" d="M164 48L165 49L164 48M166 49L167 50L166 49z"/>
<path style="fill:#076172; stroke:none;" d="M167 49L168 50L167 49z"/>
<path style="fill:#15cf4c; stroke:none;" d="M168 50L169 51L168 50z"/>
<path style="fill:#076172; stroke:none;" d="M169 50L170 51L169 50z"/>
<path style="fill:#15cf4c; stroke:none;" d="M170 51L171 52L170 51z"/>
<path style="fill:#076172; stroke:none;" d="M171 51L172 52L171 51z"/>
<path style="fill:#10a960; stroke:none;" d="M172 52L173 53L172 52z"/>
<path style="fill:#15cf4c; stroke:none;" d="M173 53L175 55L173 53z"/>
<path style="fill:#076172; stroke:none;" d="M174 53L175 54L174 53M175 54L176 55L175 54M176 55L177 56L176 55M177 56L178 57L177 56M178 57L179 58L178 57z"/>
<path style="fill:#15cf4c; stroke:none;" d="M178 58L179 59L178 58z"/>
<path style="fill:#10a960; stroke:none;" d="M179 59L180 60L179 59z"/>
<path style="fill:#076172; stroke:none;" d="M180 60L181 61L180 60z"/>
<path style="fill:#15cf4c; stroke:none;" d="M180 61L181 62L180 61z"/>
<path style="fill:#10a960; stroke:none;" d="M181 62L182 63L181 62z"/>
<path style="fill:#15cf4c; stroke:none;" d="M181 63L182 64L181 63z"/>
<path style="fill:#10a960; stroke:none;" d="M129 64L129 92L130 92L129 64z"/>
<path style="fill:#030179; stroke:none;" d="M130 64L130 92C136.93 92 145.617 92.9406 151.957 89.544C159.763 85.3619 160.256 71.8892 152.895 67.0093C146.671 62.8826 137.091 64 130 64z"/>
<path style="fill:#076172; stroke:none;" d="M144 64L144 65L147 65L144 64z"/>
<path style="fill:#10a960; stroke:none;" d="M147 64L148 65L147 64z"/>
<path style="fill:#15cf4c; stroke:none;" d="M148.667 64.3333L149.333 64.6667L148.667 64.3333z"/>
<path style="fill:#076172; stroke:none;" d="M182 64L183 65L182 64z"/>
<path style="fill:#10a960; stroke:none;" d="M37 65L37 83L38 83L37 65z"/>
<path style="fill:#076172; stroke:none;" d="M150 65L151 66L150 65z"/>
<path style="fill:#15cf4c; stroke:none;" d="M151 65L152 66L151 65M182 65L183 66L182 65z"/>
<path style="fill:#076172; stroke:none;" d="M152 66L153 67L152 66z"/>
<path style="fill:#15cf4c; stroke:none;" d="M153 66L154 67L153 66z"/>
<path style="fill:#076172; stroke:none;" d="M183 66L184 67L183 66z"/>
<path style="fill:#10a960; stroke:none;" d="M154 67L155 68L154 67M183 67L184 68L183 67M155 68L156 69L155 68z"/>
<path style="fill:#15cf4c; stroke:none;" d="M183.333 68.6667L183.667 69.3333L183.333 68.6667M156 69L157 70L156 69z"/>
<path style="fill:#076172; stroke:none;" d="M156 70L157 71L156 70M184.333 70.6667L184.667 71.3333L184.333 70.6667z"/>
<path style="fill:#10a960; stroke:none;" d="M157 71L158 72L157 71z"/>
<path style="fill:#076172; stroke:none;" d="M157 72L158 73L157 72z"/>
<path style="fill:#10a960; stroke:none;" d="M184.333 72.6667L184.667 73.3333L184.333 72.6667z"/>
<path style="fill:#15cf4c; stroke:none;" d="M158 74L159 75L158 74M184 74L184 82L185 82L184 74z"/>
<path style="fill:#10a960; stroke:none;" d="M158 75L158 81L159 81L158 75z"/>
<path style="fill:#15cf4c; stroke:none;" d="M158 81L159 82L158 81z"/>
<path style="fill:#10a960; stroke:none;" d="M184.333 82.6667L184.667 83.3333L184.333 82.6667z"/>
<path style="fill:#15cf4c; stroke:none;" d="M77 83L77 102L78 102L77 83z"/>
<path style="fill:#076172; stroke:none;" d="M157 83L158 84L157 83z"/>
<path style="fill:#15cf4c; stroke:none;" d="M157 84L158 85L157 84z"/>
<path style="fill:#076172; stroke:none;" d="M184.333 84.6667L184.667 85.3333L184.333 84.6667M156 85L157 86L156 85z"/>
<path style="fill:#15cf4c; stroke:none;" d="M156 86L157 87L156 86M183 86L184 87L183 86z"/>
<path style="fill:#10a960; stroke:none;" d="M155 87L156 88L155 87M183.333 87.6667L183.667 88.3333L183.333 87.6667M154 88L155 89L154 88z"/>
<path style="fill:#076172; stroke:none;" d="M152 89L153 90L152 89z"/>
<path style="fill:#15cf4c; stroke:none;" d="M153 89L154 90L153 89z"/>
<path style="fill:#076172; stroke:none;" d="M183 89L184 90L183 89M150 90L151 91L150 90z"/>
<path style="fill:#15cf4c; stroke:none;" d="M151 90L152 91L151 90M182 90L183 91L182 90z"/>
<path style="fill:#076172; stroke:none;" d="M144 91L144 92L147 92L144 91z"/>
<path style="fill:#10a960; stroke:none;" d="M147 91L148 92L147 91z"/>
<path style="fill:#15cf4c; stroke:none;" d="M148.667 91.3333L149.333 91.6667L148.667 91.3333z"/>
<path style="fill:#076172; stroke:none;" d="M182 91L183 92L182 91z"/>
<path style="fill:#15cf4c; stroke:none;" d="M181 92L182 93L181 92z"/>
<path style="fill:#10a960; stroke:none;" d="M181 93L182 94L181 93z"/>
<path style="fill:#15cf4c; stroke:none;" d="M180 94L181 95L180 94z"/>
<path style="fill:#076172; stroke:none;" d="M180 95L181 96L180 95z"/>
<path style="fill:#10a960; stroke:none;" d="M179 96L180 97L179 96z"/>
<path style="fill:#15cf4c; stroke:none;" d="M178 97L179 98L178 97z"/>
<path style="fill:#076172; stroke:none;" d="M178 98L179 99L178 98M177 99L178 100L177 99M176 100L177 101L176 100z"/>
<path style="fill:#15cf4c; stroke:none;" d="M174 101L173 103L174 101z"/>
<path style="fill:#076172; stroke:none;" d="M175 101L176 102L175 101z"/>
<path style="fill:#10a960; stroke:none;" d="M37 102L37 144L38 144C38 132.043 41.6107 112.988 37 102z"/>
<path style="fill:#076172; stroke:none;" d="M174 102L175 103L174 102z"/>
<path style="fill:#10a960; stroke:none;" d="M172 103L173 104L172 103z"/>
<path style="fill:#15cf4c; stroke:none;" d="M170 104L171 105L170 104z"/>
<path style="fill:#076172; stroke:none;" d="M171 104L172 105L171 104z"/>
<path style="fill:#15cf4c; stroke:none;" d="M168 105L169 106L168 105z"/>
<path style="fill:#076172; stroke:none;" d="M169 105L170 106L169 105z"/>
<path style="fill:#10a960; stroke:none;" d="M166 106L167 107L166 106z"/>
<path style="fill:#076172; stroke:none;" d="M167 106L168 107L167 106z"/>
<path style="fill:#15cf4c; stroke:none;" d="M163 107L164 108L163 107z"/>
<path style="fill:#10a960; stroke:none;" d="M164 107L165 108L164 107z"/>
<path style="fill:#15cf4c; stroke:none;" d="M159 108L160 109L159 108z"/>
<path style="fill:#10a960; stroke:none;" d="M160 108L161 109L160 108z"/>
<path style="fill:#076172; stroke:none;" d="M161 108L162 109L161 108z"/>
<path style="fill:#15cf4c; stroke:none;" d="M151 109L151 110L154 110L151 109z"/>
<path style="fill:#10a960; stroke:none;" d="M154.667 109.333L155.333 109.667L154.667 109.333z"/>
<path style="fill:#076172; stroke:none;" d="M156.667 109.333L157.333 109.667L156.667 109.333z"/>
<path style="fill:#10a960; stroke:none;" d="M129 110L129 144L130 144L129 110z"/>
</svg>
